<mxfile host="drawio-plugin" modified="2023-10-31T09:33:22.615Z" agent="5.0 (Windows NT 6.2; Win64; x64) AppleWebKit/537.36 (KHTML, like Gecko) Chrome/104.0.5112.102 Safari/537.36" version="20.5.3" etag="VuMyDQjYdkyH_s2XNXxr" type="embed"><diagram id="w_9jJ8-dKPx64laMkm2h" name="Page-1"><mxGraphModel dx="1517" dy="467" grid="1" gridSize="10" guides="1" tooltips="1" connect="1" arrows="1" fold="1" page="1" pageScale="1" pageWidth="850" pageHeight="1100" background="#F1FAEE" math="0" shadow="0"><root><mxCell id="0"/><mxCell id="1" parent="0"/><mxCell id="5" value="employer" style="swimlane;childLayout=stackLayout;horizontal=1;startSize=30;horizontalStack=0;rounded=1;fontSize=14;fontStyle=0;strokeWidth=2;resizeParent=0;resizeLast=1;shadow=0;dashed=0;align=center;strokeColor=#457B9D;fontColor=#1D3557;fillColor=#A8DADC;" vertex="1" parent="1"><mxGeometry x="520" y="120" width="160" height="120" as="geometry"/></mxCell><mxCell id="6" value="+Attribute1&#10;+Attribute2&#10;+Attribute3" style="align=left;strokeColor=none;fillColor=none;spacingLeft=4;fontSize=12;verticalAlign=top;resizable=0;rotatable=0;part=1;fontColor=#1D3557;" vertex="1" parent="5"><mxGeometry y="30" width="160" height="90" as="geometry"/></mxCell><mxCell id="7" value="candidate" style="swimlane;childLayout=stackLayout;horizontal=1;startSize=30;horizontalStack=0;rounded=1;fontSize=14;fontStyle=0;strokeWidth=2;resizeParent=0;resizeLast=1;shadow=0;dashed=0;align=center;strokeColor=#457B9D;fontColor=#1D3557;fillColor=#A8DADC;" vertex="1" parent="1"><mxGeometry x="20" y="120" width="160" height="120" as="geometry"/></mxCell><mxCell id="8" value="+Attribute1&#10;+Attribute2&#10;+Attribute3" style="align=left;strokeColor=none;fillColor=none;spacingLeft=4;fontSize=12;verticalAlign=top;resizable=0;rotatable=0;part=1;fontColor=#1D3557;" vertex="1" parent="7"><mxGeometry y="30" width="160" height="90" as="geometry"/></mxCell><mxCell id="9" value="chat-GPT" style="swimlane;childLayout=stackLayout;horizontal=1;startSize=30;horizontalStack=0;rounded=1;fontSize=14;fontStyle=0;strokeWidth=2;resizeParent=0;resizeLast=1;shadow=0;dashed=0;align=center;strokeColor=#457B9D;fontColor=#1D3557;fillColor=#A8DADC;" vertex="1" parent="1"><mxGeometry x="265" y="120" width="160" height="120" as="geometry"/></mxCell><mxCell id="10" value="+Attribute1&#10;+Attribute2&#10;+Attribute3" style="align=left;strokeColor=none;fillColor=none;spacingLeft=4;fontSize=12;verticalAlign=top;resizable=0;rotatable=0;part=1;fontColor=#1D3557;" vertex="1" parent="9"><mxGeometry y="30" width="160" height="90" as="geometry"/></mxCell><mxCell id="18" style="edgeStyle=orthogonalEdgeStyle;rounded=0;orthogonalLoop=1;jettySize=auto;html=1;entryX=0;entryY=0.5;entryDx=0;entryDy=0;strokeColor=#457B9D;fontColor=#1D3557;fillColor=#A8DADC;" edge="1" parent="1" source="15" target="17"><mxGeometry relative="1" as="geometry"/></mxCell><mxCell id="15" value="开始" style="strokeWidth=2;html=1;shape=mxgraph.flowchart.start_2;whiteSpace=wrap;strokeColor=#457B9D;fontColor=#1D3557;fillColor=#A8DADC;" vertex="1" parent="1"><mxGeometry x="-120" y="290" width="60" height="60" as="geometry"/></mxCell><mxCell id="22" style="edgeStyle=orthogonalEdgeStyle;rounded=0;orthogonalLoop=1;jettySize=auto;html=1;strokeColor=#457B9D;fontColor=#1D3557;fillColor=#A8DADC;" edge="1" parent="1" source="17" target="21"><mxGeometry relative="1" as="geometry"/></mxCell><mxCell id="17" value="搜索职位" style="rounded=1;whiteSpace=wrap;html=1;absoluteArcSize=1;arcSize=14;strokeWidth=2;strokeColor=#457B9D;fontColor=#1D3557;fillColor=#A8DADC;" vertex="1" parent="1"><mxGeometry x="40" y="295" width="110" height="50" as="geometry"/></mxCell><mxCell id="24" value="" style="edgeStyle=orthogonalEdgeStyle;rounded=0;orthogonalLoop=1;jettySize=auto;html=1;strokeColor=#457B9D;fontColor=#1D3557;fillColor=#A8DADC;" edge="1" parent="1" source="21" target="23"><mxGeometry relative="1" as="geometry"/></mxCell><mxCell id="21" value="AI推荐职位" style="rounded=1;whiteSpace=wrap;html=1;absoluteArcSize=1;arcSize=14;strokeWidth=2;strokeColor=#457B9D;fontColor=#1D3557;fillColor=#A8DADC;" vertex="1" parent="1"><mxGeometry x="300" y="295" width="110" height="50" as="geometry"/></mxCell><mxCell id="26" value="" style="edgeStyle=orthogonalEdgeStyle;rounded=0;orthogonalLoop=1;jettySize=auto;html=1;strokeColor=#457B9D;fontColor=#1D3557;fillColor=#A8DADC;" edge="1" parent="1" source="23" target="25"><mxGeometry relative="1" as="geometry"/></mxCell><mxCell id="70" style="edgeStyle=orthogonalEdgeStyle;rounded=0;orthogonalLoop=1;jettySize=auto;html=1;entryX=0;entryY=0.5;entryDx=0;entryDy=0;entryPerimeter=0;strokeColor=#457B9D;fontColor=#1D3557;fillColor=#A8DADC;" edge="1" parent="1" source="23" target="32"><mxGeometry relative="1" as="geometry"/></mxCell><mxCell id="23" value="匹配到需要的职位" style="rhombus;whiteSpace=wrap;html=1;fillColor=#A8DADC;strokeColor=#457B9D;fontColor=#1D3557;rounded=1;arcSize=14;strokeWidth=2;" vertex="1" parent="1"><mxGeometry x="295" y="420" width="120" height="100" as="geometry"/></mxCell><mxCell id="29" value="" style="edgeStyle=orthogonalEdgeStyle;rounded=0;orthogonalLoop=1;jettySize=auto;html=1;strokeColor=#457B9D;fontColor=#1D3557;fillColor=#A8DADC;" edge="1" parent="1" source="25" target="28"><mxGeometry relative="1" as="geometry"><Array as="points"><mxPoint x="95" y="575"/></Array></mxGeometry></mxCell><mxCell id="25" value="选择，并查看" style="whiteSpace=wrap;html=1;fillColor=#A8DADC;strokeColor=#457B9D;fontColor=#1D3557;rounded=1;arcSize=14;strokeWidth=2;" vertex="1" parent="1"><mxGeometry x="40" y="445" width="110" height="50" as="geometry"/></mxCell><mxCell id="27" value="Y" style="text;html=1;align=center;verticalAlign=middle;resizable=0;points=[];autosize=1;strokeColor=none;fillColor=none;fontColor=#1D3557;" vertex="1" parent="1"><mxGeometry x="180" y="440" width="30" height="30" as="geometry"/></mxCell><mxCell id="35" style="edgeStyle=orthogonalEdgeStyle;rounded=0;orthogonalLoop=1;jettySize=auto;html=1;strokeColor=#457B9D;fontColor=#1D3557;fillColor=#A8DADC;" edge="1" parent="1" source="28" target="34"><mxGeometry relative="1" as="geometry"/></mxCell><mxCell id="28" value="发起聊天" style="whiteSpace=wrap;html=1;fillColor=#A8DADC;strokeColor=#457B9D;fontColor=#1D3557;rounded=1;arcSize=14;strokeWidth=2;" vertex="1" parent="1"><mxGeometry x="40" y="610" width="110" height="50" as="geometry"/></mxCell><mxCell id="32" value="结束" style="strokeWidth=2;html=1;shape=mxgraph.flowchart.terminator;whiteSpace=wrap;strokeColor=#457B9D;fontColor=#1D3557;fillColor=#A8DADC;" vertex="1" parent="1"><mxGeometry x="780" y="440" width="100" height="60" as="geometry"/></mxCell><mxCell id="33" value="N" style="text;html=1;align=center;verticalAlign=middle;resizable=0;points=[];autosize=1;strokeColor=none;fillColor=none;fontColor=#1D3557;" vertex="1" parent="1"><mxGeometry x="340" y="415" width="30" height="30" as="geometry"/></mxCell><mxCell id="37" value="" style="edgeStyle=orthogonalEdgeStyle;rounded=0;orthogonalLoop=1;jettySize=auto;html=1;strokeColor=#457B9D;fontColor=#1D3557;fillColor=#A8DADC;" edge="1" parent="1" source="34" target="36"><mxGeometry relative="1" as="geometry"/></mxCell><mxCell id="34" value="聊天并查看简历" style="whiteSpace=wrap;html=1;fillColor=#A8DADC;strokeColor=#457B9D;fontColor=#1D3557;rounded=1;arcSize=14;strokeWidth=2;" vertex="1" parent="1"><mxGeometry x="580" y="610" width="110" height="50" as="geometry"/></mxCell><mxCell id="39" value="" style="edgeStyle=orthogonalEdgeStyle;rounded=0;orthogonalLoop=1;jettySize=auto;html=1;strokeColor=#457B9D;fontColor=#1D3557;fillColor=#A8DADC;" edge="1" parent="1" source="36" target="40"><mxGeometry relative="1" as="geometry"><mxPoint x="155" y="765" as="targetPoint"/></mxGeometry></mxCell><mxCell id="36" value="发起面试邀约" style="whiteSpace=wrap;html=1;fillColor=#A8DADC;strokeColor=#457B9D;fontColor=#1D3557;rounded=1;arcSize=14;strokeWidth=2;" vertex="1" parent="1"><mxGeometry x="580" y="740" width="110" height="50" as="geometry"/></mxCell><mxCell id="45" value="" style="edgeStyle=orthogonalEdgeStyle;rounded=0;orthogonalLoop=1;jettySize=auto;html=1;strokeColor=#457B9D;fontColor=#1D3557;fillColor=#A8DADC;" edge="1" parent="1" source="40" target="44"><mxGeometry relative="1" as="geometry"/></mxCell><mxCell id="50" value="" style="edgeStyle=orthogonalEdgeStyle;rounded=0;orthogonalLoop=1;jettySize=auto;html=1;strokeColor=#457B9D;fontColor=#1D3557;fillColor=#A8DADC;" edge="1" parent="1" source="40" target="49"><mxGeometry relative="1" as="geometry"/></mxCell><mxCell id="40" value="是否同意" style="rhombus;whiteSpace=wrap;html=1;fillColor=#A8DADC;strokeColor=#457B9D;fontColor=#1D3557;rounded=1;arcSize=14;strokeWidth=2;" vertex="1" parent="1"><mxGeometry x="40" y="726.25" width="110" height="77.5" as="geometry"/></mxCell><mxCell id="53" value="" style="edgeStyle=orthogonalEdgeStyle;rounded=0;orthogonalLoop=1;jettySize=auto;html=1;strokeColor=#457B9D;fontColor=#1D3557;fillColor=#A8DADC;" edge="1" parent="1" source="44" target="52"><mxGeometry relative="1" as="geometry"/></mxCell><mxCell id="44" value="添加面试邀约" style="rounded=1;whiteSpace=wrap;html=1;fillColor=#A8DADC;strokeColor=#457B9D;fontColor=#1D3557;arcSize=14;strokeWidth=2;" vertex="1" parent="1"><mxGeometry x="35" y="892.5" width="120" height="60" as="geometry"/></mxCell><mxCell id="46" value="Y" style="text;html=1;align=center;verticalAlign=middle;resizable=0;points=[];autosize=1;strokeColor=none;fillColor=none;fontColor=#1D3557;" vertex="1" parent="1"><mxGeometry x="95" y="825" width="30" height="30" as="geometry"/></mxCell><mxCell id="49" value="结束" style="ellipse;whiteSpace=wrap;html=1;fillColor=#A8DADC;strokeColor=#457B9D;fontColor=#1D3557;rounded=1;arcSize=14;strokeWidth=2;" vertex="1" parent="1"><mxGeometry x="-170" y="742.5" width="80" height="45" as="geometry"/></mxCell><mxCell id="51" value="N" style="text;html=1;align=center;verticalAlign=middle;resizable=0;points=[];autosize=1;strokeColor=none;fillColor=none;fontColor=#1D3557;" vertex="1" parent="1"><mxGeometry x="-45" y="725" width="30" height="30" as="geometry"/></mxCell><mxCell id="57" value="" style="edgeStyle=orthogonalEdgeStyle;rounded=0;orthogonalLoop=1;jettySize=auto;html=1;strokeColor=#457B9D;fontColor=#1D3557;fillColor=#A8DADC;" edge="1" parent="1" source="52" target="56"><mxGeometry relative="1" as="geometry"/></mxCell><mxCell id="52" value="添加面试邀约" style="whiteSpace=wrap;html=1;fillColor=#A8DADC;strokeColor=#457B9D;fontColor=#1D3557;rounded=1;arcSize=14;strokeWidth=2;" vertex="1" parent="1"><mxGeometry x="580" y="892.5" width="120" height="60" as="geometry"/></mxCell><mxCell id="56" value="结束" style="ellipse;whiteSpace=wrap;html=1;fillColor=#A8DADC;strokeColor=#457B9D;fontColor=#1D3557;rounded=1;arcSize=14;strokeWidth=2;" vertex="1" parent="1"><mxGeometry x="780" y="894" width="80" height="57.5" as="geometry"/></mxCell><mxCell id="74" value="N" style="text;html=1;align=center;verticalAlign=middle;resizable=0;points=[];autosize=1;strokeColor=none;fillColor=none;fontColor=#1D3557;" vertex="1" parent="1"><mxGeometry x="495" y="545" width="30" height="30" as="geometry"/></mxCell></root></mxGraphModel></diagram></mxfile>